<svg xmlns="http://www.w3.org/2000/svg" xmlns:xlink="http://www.w3.org/1999/xlink" x="0" y="0" version="1.1" viewBox="0 0 300.1 118.7" xml:space="preserve" style="enable-background:new 0 0 300.1 118.7"><style type="text/css">.st2{fill:#149dd9}.st3{font-family:&apos;Gotham-Bold&apos;}.st4{font-size:24.5px}.st5{fill:#fff}</style><g id="Foreground__x2F__Text"><text class="st2 st3 st4" transform="matrix(1 0 0 1 98.7732 117.9714)">NAME SERVICE</text><g><g><path d="M29.6,66.8h-5.7c-0.3,0-0.5-0.2-0.5-0.5v-19c0-0.3,0.2-0.5,0.5-0.5h5.7c0.3,0,0.5,0.2,0.5,0.5v19 C30.1,66.5,29.9,66.8,29.6,66.8z" class="st2"/><path d="M41.2,80.2h-5.5c-0.3,0-0.5-0.2-0.5-0.5V52.5c0-0.3,0.2-0.5,0.5-0.5h5.5c0.3,0,0.5,0.2,0.5,0.5v27.2 C41.7,80,41.5,80.2,41.2,80.2z" class="st2"/><path d="M17.9,53.5h-5.7c-0.3,0-0.5-0.2-0.5-0.5v-5.7c0-0.3,0.2-0.5,0.5-0.5h5.7c0.3,0,0.5,0.2,0.5,0.5v5.7 C18.5,53.2,18.2,53.5,17.9,53.5z" class="st2"/><path d="M6.2,53.5H0.5c-0.3,0-0.5-0.2-0.5-0.5v-5.7c0-0.3,0.2-0.5,0.5-0.5h5.7c0.3,0,0.5,0.2,0.5,0.5v5.7 C6.8,53.2,6.5,53.5,6.2,53.5z" class="st2"/></g><g><path d="M66.8,57.4v5.7c0,0.3-0.2,0.5-0.5,0.5h-19c-0.3,0-0.5-0.2-0.5-0.5v-5.7c0-0.3,0.2-0.5,0.5-0.5h19 C66.6,56.9,66.8,57.1,66.8,57.4z" class="st2"/><path d="M80.2,45.9v5.5c0,0.3-0.2,0.5-0.5,0.5H52.5c-0.3,0-0.5-0.2-0.5-0.5v-5.5c0-0.3,0.2-0.5,0.5-0.5h27.2 C80,45.3,80.2,45.5,80.2,45.9z" class="st2"/><path d="M53.5,69.1v5.7c0,0.3-0.2,0.5-0.5,0.5h-5.7c-0.3,0-0.5-0.2-0.5-0.5v-5.7c0-0.3,0.2-0.5,0.5-0.5h5.7 C53.2,68.6,53.5,68.8,53.5,69.1z" class="st2"/><path d="M53.5,80.8v5.7c0,0.3-0.2,0.5-0.5,0.5h-5.7c-0.3,0-0.5-0.2-0.5-0.5v-5.7c0-0.3,0.2-0.5,0.5-0.5h5.7 C53.2,80.2,53.5,80.5,53.5,80.8z" class="st2"/></g><g><path d="M57.5,20.2h5.7c0.3,0,0.5,0.2,0.5,0.5v19c0,0.3-0.2,0.5-0.5,0.5h-5.7c-0.3,0-0.5-0.2-0.5-0.5v-19 C56.9,20.5,57.2,20.2,57.5,20.2z" class="st2"/><path d="M45.9,6.8h5.5c0.3,0,0.5,0.2,0.5,0.5v27.2c0,0.3-0.2,0.5-0.5,0.5h-5.5c-0.3,0-0.5-0.2-0.5-0.5V7.3 C45.3,7,45.6,6.8,45.9,6.8z" class="st2"/><path d="M69.1,33.5h5.7c0.3,0,0.5,0.2,0.5,0.5v5.7c0,0.3-0.2,0.5-0.5,0.5h-5.7c-0.3,0-0.5-0.2-0.5-0.5v-5.7 C68.6,33.8,68.8,33.5,69.1,33.5z" class="st2"/><path d="M80.8,33.5h5.7c0.3,0,0.5,0.2,0.5,0.5v5.7c0,0.3-0.2,0.5-0.5,0.5h-5.7c-0.3,0-0.5-0.2-0.5-0.5v-5.7 C80.3,33.8,80.5,33.5,80.8,33.5z" class="st2"/></g><g><path d="M20.3,29.6v-5.7c0-0.3,0.2-0.5,0.5-0.5h19c0.3,0,0.5,0.2,0.5,0.5v5.7c0,0.3-0.2,0.5-0.5,0.5h-19 C20.5,30.1,20.3,29.9,20.3,29.6z" class="st2"/><path d="M6.8,41.2v-5.5c0-0.3,0.2-0.5,0.5-0.5h27.2c0.3,0,0.5,0.2,0.5,0.5v5.5c0,0.3-0.2,0.5-0.5,0.5H7.4 C7.1,41.7,6.8,41.5,6.8,41.2z" class="st2"/><path d="M33.6,17.9v-5.7c0-0.3,0.2-0.5,0.5-0.5h5.7c0.3,0,0.5,0.2,0.5,0.5v5.7c0,0.3-0.2,0.5-0.5,0.5h-5.7 C33.8,18.5,33.6,18.2,33.6,17.9z" class="st2"/><path d="M33.6,6.2V0.5c0-0.3,0.2-0.5,0.5-0.5h5.7c0.3,0,0.5,0.2,0.5,0.5v5.7c0,0.3-0.2,0.5-0.5,0.5h-5.7 C33.8,6.8,33.6,6.5,33.6,6.2z" class="st2"/></g></g><g><path d="M138.6,34.4v52.1c0,0.3,0.2,0.5,0.5,0.5h12.2c0.3,0,0.5-0.2,0.5-0.5V34.4c0-0.3-0.2-0.5-0.5-0.5h-12.2 C138.9,33.8,138.6,34.1,138.6,34.4z" class="st5"/><path d="M190.6,34.6H177v-5.3c0-4.3,2.4-6.7,6.8-6.7h6.7c0.3,0,0.5-0.2,0.5-0.5V11.5c0-0.3-0.2-0.5-0.5-0.5h-9.7 c-10.6,0-16.6,7.5-16.6,17.9l-0.1,57.6c0,0.3,0.2,0.5,0.5,0.5h12.2c0.3,0,0.5-0.2,0.5-0.5V46h13.2c0.3,0,0.5-0.2,0.5-0.5l0-10.3 C191.2,34.8,190.9,34.6,190.6,34.6z" class="st5"/><path d="M113.7,51.8c0-4.3,2.4-6.7,6.8-6.7h6.8c0.3,0,0.5-0.2,0.5-0.5V34.1c0-0.3-0.2-0.5-0.5-0.5h-9.8 c-10.6,0-16.6,7.5-16.6,17.9l-0.1,35c0,0.3,0.2,0.5,0.5,0.5h12.2c0.3,0,0.5-0.2,0.5-0.5L113.7,51.8z" class="st5"/><path d="M151.4,24.7h-12.2c-0.3,0-0.5-0.2-0.5-0.5V11.9c0-0.3,0.2-0.5,0.5-0.5h12.2c0.3,0,0.5,0.2,0.5,0.5v12.2 C151.9,24.4,151.7,24.7,151.4,24.7z" class="st5"/></g></g></svg>